<?xml version="1.0" encoding="UTF-8"?>
<!DOCTYPE svg PUBLIC "-//W3C//DTD SVG 1.1//EN" "http://www.w3.org/Graphics/SVG/1.1/DTD/svg11.dtd">
<svg xmlns="http://www.w3.org/2000/svg" version="1.1" width="512px" height="512px" style="shape-rendering:geometricPrecision; text-rendering:geometricPrecision; image-rendering:optimizeQuality; fill-rule:evenodd; clip-rule:evenodd" xmlns:xlink="http://www.w3.org/1999/xlink">
<g><path style="opacity:0.993" fill="#010100" d="M 368.5,7.5 C 383.504,7.33342 398.504,7.50008 413.5,8C 437.766,12.7176 455.266,26.2176 466,48.5C 473.455,68.4097 473.288,88.2431 465.5,108C 472.067,118.52 473.234,129.686 469,141.5C 461.657,155.093 450.157,161.259 434.5,160C 432.793,163.248 430.96,166.415 429,169.5C 424.578,173.415 420.745,177.748 417.5,182.5C 418.682,188.912 420.182,195.245 422,201.5C 423.458,203.96 425.291,206.127 427.5,208C 440.933,211.287 454.267,214.954 467.5,219C 486.466,228.977 498.299,244.477 503,265.5C 503.5,280.83 503.667,296.163 503.5,311.5C 338.167,311.5 172.833,311.5 7.5,311.5C 7.5,306.167 7.5,300.833 7.5,295.5C 34.5021,295.667 61.5021,295.5 88.5,295C 92.8879,279.282 96.8879,263.448 100.5,247.5C 74.8333,247.5 49.1667,247.5 23.5,247.5C 23.5,178.167 23.5,108.833 23.5,39.5C 119.834,39.6667 216.167,39.5 312.5,39C 318.037,35.4309 324.037,32.9309 330.5,31.5C 340.366,18.949 353.033,10.949 368.5,7.5 Z M 158.5,247.5 C 177.836,247.333 197.17,247.5 216.5,248C 220.888,263.718 224.888,279.552 228.5,295.5C 201.167,295.5 173.833,295.5 146.5,295.5C 150.192,279.4 154.192,263.4 158.5,247.5 Z"/></g>
<g><path style="opacity:1" fill="#424953" d="M 372.5,23.5 C 384.171,23.3335 395.838,23.5001 407.5,24C 436.904,29.2378 452.904,46.7378 455.5,76.5C 455.31,83.3646 454.143,90.0312 452,96.5C 451.439,97.0219 450.772,97.3552 450,97.5C 445.952,96.1029 441.786,95.1029 437.5,94.5C 434.611,88.1107 429.945,83.6107 423.5,81C 408.461,80.0347 393.461,79.0347 378.5,78C 374.074,72.5586 374.741,67.8919 380.5,64C 384.152,63.5014 387.818,63.3347 391.5,63.5C 391.5,58.1667 391.5,52.8333 391.5,47.5C 376.04,45.0531 365.706,51.0531 360.5,65.5C 344.217,68.7752 333.55,78.4419 328.5,94.5C 324.076,95.2578 319.743,96.2578 315.5,97.5C 313.378,89.1479 312.045,80.6479 311.5,72C 311.781,61.4344 316.781,54.101 326.5,50C 331.167,48.6667 335.833,47.3333 340.5,46C 348.254,34.2951 358.921,26.7951 372.5,23.5 Z"/></g>
<g><path style="opacity:1" fill="#e5e8ec" d="M 39.5,55.5 C 125.833,55.5 212.167,55.5 298.5,55.5C 294.872,67.3788 294.705,79.3788 298,91.5C 299.422,96.6893 300.922,101.856 302.5,107C 292.347,122.984 293.68,137.984 306.5,152C 314.501,157.944 323.501,160.778 333.5,160.5C 337.678,168.186 343.178,174.852 350,180.5C 349.111,188.271 347.445,195.938 345,203.5C 343.167,205.333 341.333,207.167 339.5,209C 327.481,211.871 315.481,214.871 303.5,218C 296.024,221.152 289.358,225.486 283.5,231C 202.167,231.5 120.834,231.667 39.5,231.5C 39.5,172.833 39.5,114.167 39.5,55.5 Z"/></g>
<g><path style="opacity:1" fill="#000000" d="M 55.5,71.5 C 87.5,71.5 119.5,71.5 151.5,71.5C 151.5,87.5 151.5,103.5 151.5,119.5C 162.167,119.5 172.833,119.5 183.5,119.5C 183.5,108.833 183.5,98.1667 183.5,87.5C 215.5,87.5 247.5,87.5 279.5,87.5C 279.5,114.167 279.5,140.833 279.5,167.5C 258.167,167.5 236.833,167.5 215.5,167.5C 215.5,183.5 215.5,199.5 215.5,215.5C 178.167,215.5 140.833,215.5 103.5,215.5C 103.5,199.5 103.5,183.5 103.5,167.5C 87.5,167.5 71.5,167.5 55.5,167.5C 55.5,135.5 55.5,103.5 55.5,71.5 Z"/></g>
<g><path style="opacity:1" fill="#eecfb3" d="M 358.5,81.5 C 359.978,81.238 361.311,81.5713 362.5,82.5C 365.842,88.6767 370.842,92.8434 377.5,95C 391.167,95.3333 404.833,95.6667 418.5,96C 420.667,96.8333 422.167,98.3333 423,100.5C 423.667,114.833 423.667,129.167 423,143.5C 414.672,168.419 397.506,178.586 371.5,174C 357.092,168.59 347.925,158.424 344,143.5C 343.333,128.5 343.333,113.5 344,98.5C 346.886,91.1181 351.72,85.4514 358.5,81.5 Z"/></g>
<g><path style="opacity:1" fill="#fe826d" d="M 71.5,87.5 C 92.8333,87.5 114.167,87.5 135.5,87.5C 135.5,108.833 135.5,130.167 135.5,151.5C 114.167,151.5 92.8333,151.5 71.5,151.5C 71.5,130.167 71.5,108.833 71.5,87.5 Z"/></g>
<g><path style="opacity:1" fill="#fe826d" d="M 199.5,103.5 C 220.833,103.5 242.167,103.5 263.5,103.5C 263.5,119.5 263.5,135.5 263.5,151.5C 247.5,151.5 231.5,151.5 215.5,151.5C 215.5,140.833 215.5,130.167 215.5,119.5C 210.167,119.5 204.833,119.5 199.5,119.5C 199.5,114.167 199.5,108.833 199.5,103.5 Z"/></g>
<g><path style="opacity:1" fill="#ebccb0" d="M 322.5,111.5 C 324.167,111.5 325.833,111.5 327.5,111.5C 327.5,122.167 327.5,132.833 327.5,143.5C 313.073,140.651 308.573,132.317 314,118.5C 316.441,115.546 319.275,113.213 322.5,111.5 Z"/></g>
<g><path style="opacity:1" fill="#eacaaf" d="M 439.5,111.5 C 453.927,114.349 458.427,122.683 453,136.5C 449.398,141.384 444.565,143.718 438.5,143.5C 439.43,132.872 439.763,122.205 439.5,111.5 Z"/></g>
<g><path style="opacity:1" fill="#feeaa6" d="M 151.5,135.5 C 167.5,135.5 183.5,135.5 199.5,135.5C 199.5,156.833 199.5,178.167 199.5,199.5C 172.833,199.5 146.167,199.5 119.5,199.5C 119.5,188.833 119.5,178.167 119.5,167.5C 130.167,167.5 140.833,167.5 151.5,167.5C 151.5,156.833 151.5,146.167 151.5,135.5 Z"/></g>
<g><path style="opacity:1" fill="#ebcbb0" d="M 364.5,188.5 C 377.124,192.316 389.79,192.316 402.5,188.5C 403.1,192.667 403.766,196.833 404.5,201C 404.167,202.167 403.833,203.333 403.5,204.5C 396.833,207.833 390.167,211.167 383.5,214.5C 376.833,211.167 370.167,207.833 363.5,204.5C 363.167,203.333 362.833,202.167 362.5,201C 363.234,196.833 363.9,192.667 364.5,188.5 Z"/></g>
<g><path style="opacity:1" fill="#9bcd65" d="M 353.5,217.5 C 358.473,219.987 363.473,222.487 368.5,225C 362.5,230 356.5,235 350.5,240C 349.216,240.684 348.049,240.517 347,239.5C 344.58,234.67 342.746,229.67 341.5,224.5C 346.45,223.695 350.45,221.362 353.5,217.5 Z"/></g>
<g><path style="opacity:1" fill="#9bcd64" d="M 412.5,217.5 C 416.083,220.567 420.083,223.067 424.5,225C 425.022,225.561 425.355,226.228 425.5,227C 423.287,231.925 420.954,236.759 418.5,241.5C 411.979,235.811 405.312,230.311 398.5,225C 403.387,222.726 408.054,220.226 412.5,217.5 Z"/></g>
<g><path style="opacity:1" fill="#fad56f" d="M 318.5,229.5 C 320.924,229.192 323.257,229.526 325.5,230.5C 335.459,252.081 345.126,273.748 354.5,295.5C 329.5,295.5 304.5,295.5 279.5,295.5C 274.824,268.709 283.824,248.209 306.5,234C 310.571,232.37 314.571,230.87 318.5,229.5 Z"/></g>
<g><path style="opacity:1" fill="#fad56f" d="M 441.5,229.5 C 465.421,232.253 480.588,245.253 487,268.5C 487.5,277.494 487.666,286.494 487.5,295.5C 462.5,295.5 437.5,295.5 412.5,295.5C 422.161,273.511 431.827,251.511 441.5,229.5 Z"/></g>
<g><path style="opacity:1" fill="#f2694e" d="M 381.5,234.5 C 385.002,234.167 387.336,235.667 388.5,239C 385.167,250.333 381.833,250.333 378.5,239C 379.315,237.357 380.315,235.857 381.5,234.5 Z"/></g>
<g><path style="opacity:1" fill="#cc9b74" d="M 117.5,247.5 C 125.167,247.5 132.833,247.5 140.5,247.5C 136.833,263.5 133.167,279.5 129.5,295.5C 121.472,295.831 113.472,295.498 105.5,294.5C 109.659,278.863 113.659,263.197 117.5,247.5 Z"/></g>
<g><path style="opacity:1" fill="#ce9d75" d="M 234.5,247.5 C 246.518,247.168 258.518,247.501 270.5,248.5C 267.436,254.524 265.27,260.858 264,267.5C 263.5,276.827 263.334,286.161 263.5,295.5C 257.5,295.5 251.5,295.5 245.5,295.5C 241.833,279.5 238.167,263.5 234.5,247.5 Z"/></g>
<g><path style="opacity:1" fill="#abd279" d="M 363.5,249.5 C 364.376,249.369 365.043,249.702 365.5,250.5C 366.366,252.432 367.033,254.432 367.5,256.5C 365.902,262.752 364.736,269.085 364,275.5C 360.773,269.543 357.939,263.377 355.5,257C 357.998,254.336 360.665,251.836 363.5,249.5 Z"/></g>
<g><path style="opacity:1" fill="#abd279" d="M 401.5,249.5 C 405.562,251.067 408.896,253.567 411.5,257C 409.061,263.377 406.227,269.543 403,275.5C 402.264,269.085 401.098,262.752 399.5,256.5C 400.173,254.149 400.84,251.816 401.5,249.5 Z"/></g>
<g><path style="opacity:1" fill="#f07a67" d="M 381.5,263.5 C 382.833,263.5 384.167,263.5 385.5,263.5C 387.051,274.141 388.385,284.807 389.5,295.5C 385.5,295.5 381.5,295.5 377.5,295.5C 378.615,284.807 379.949,274.141 381.5,263.5 Z"/></g>
<g><path style="opacity:0.98" fill="#000000" d="M 49.5,327.5 C 73.169,327.333 96.8357,327.5 120.5,328C 136.667,332.167 146.833,342.333 151,358.5C 151.667,370.5 151.667,382.5 151,394.5C 148.279,407.121 142.112,417.621 132.5,426C 151.421,431.793 165.755,443.293 175.5,460.5C 185.245,443.293 199.579,431.793 218.5,426C 209.786,418.755 203.953,409.588 201,398.5C 199.427,387.559 199.094,376.559 200,365.5C 205.167,345.667 217.667,333.167 237.5,328C 249.5,327.333 261.5,327.333 273.5,328C 293.333,333.167 305.833,345.667 311,365.5C 314.442,384.282 311.109,401.615 301,417.5C 298.264,420.516 295.43,423.349 292.5,426C 311.421,431.793 325.755,443.293 335.5,460.5C 345.245,443.293 359.579,431.793 378.5,426C 361.298,409.383 355.131,389.217 360,365.5C 365.167,345.667 377.667,333.167 397.5,328C 409.5,327.333 421.5,327.333 433.5,328C 453.333,333.167 465.833,345.667 471,365.5C 475.869,389.217 469.702,409.383 452.5,426C 488.147,439.439 505.147,465.273 503.5,503.5C 338.167,503.5 172.833,503.5 7.5,503.5C 5.85288,465.273 22.8529,439.439 58.5,426C 48.8877,417.621 42.721,407.121 40,394.5C 39.3333,375.5 39.3333,356.5 40,337.5C 42.0223,332.98 45.189,329.647 49.5,327.5 Z"/></g>
<g><path style="opacity:1" fill="#b17845" d="M 55.5,343.5 C 75.8361,343.333 96.1694,343.5 116.5,344C 131.751,349.455 138.084,360.288 135.5,376.5C 135.411,408.422 119.411,423.922 87.5,423C 71,418.5 60.5,408 56,391.5C 55.5001,375.503 55.3334,359.503 55.5,343.5 Z"/></g>
<g><path style="opacity:1" fill="#424953" d="M 240.5,343.5 C 249.506,343.334 258.506,343.5 267.5,344C 280.68,345.837 289.514,353.003 294,365.5C 299.041,384.696 294.541,401.196 280.5,415C 259.902,427.98 241.068,425.814 224,408.5C 215.177,394.105 213.177,378.772 218,362.5C 222.902,352.982 230.402,346.649 240.5,343.5 Z"/></g>
<g><path style="opacity:1" fill="#424953" d="M 400.5,343.5 C 409.506,343.334 418.506,343.5 427.5,344C 446.028,347.706 455.361,359.039 455.5,378C 455.639,405.691 441.973,420.857 414.5,423.5C 388.103,419.93 375.103,404.763 375.5,378C 375.912,360.649 384.246,349.149 400.5,343.5 Z"/></g>
<g><path style="opacity:1" fill="#eacbb0" d="M 399.5,437.5 C 410.158,440.128 420.825,440.128 431.5,437.5C 429.819,453.342 421.485,458.509 406.5,453C 401.305,449.111 398.971,443.944 399.5,437.5 Z"/></g>
<g><path style="opacity:1" fill="#b3dc7e" d="M 71.5,439.5 C 86.837,439.333 102.17,439.5 117.5,440C 145.211,444.213 161.545,460.046 166.5,487.5C 119.167,487.5 71.8333,487.5 24.5,487.5C 29.4067,460.927 45.0734,444.927 71.5,439.5 Z"/></g>
<g><path style="opacity:1" fill="#e4e7eb" d="M 231.5,439.5 C 246.837,439.333 262.17,439.5 277.5,440C 305.211,444.213 321.545,460.046 326.5,487.5C 279.167,487.5 231.833,487.5 184.5,487.5C 189.407,460.927 205.073,444.927 231.5,439.5 Z"/></g>
<g><path style="opacity:1" fill="#b2db7d" d="M 382.5,441.5 C 385.071,454.924 392.737,464.424 405.5,470C 423.502,473.914 436.668,467.747 445,451.5C 445.953,448.568 446.453,445.568 446.5,442.5C 469.675,448.679 483.008,463.679 486.5,487.5C 439.167,487.5 391.833,487.5 344.5,487.5C 348.21,464.735 360.877,449.402 382.5,441.5 Z"/></g>
</svg>
